# xmcd
#
# Track frame offsets: 
#        150
#        14985
#        30607
#        44897
#        59012
#        72847
#        86827
#        102080
#        117347
#        132262
#        145767
#        160640
#        175657
#        189517
#        203757
#        218995
#        234735
#        249082
#        261525
#        276035
#        291165
#        305175
#        318937
#        333747
#
# Disc length: 4650 seconds
#
# Revision: 0
# Processed by: cddbd v1.5.2PL0 Copyright (c) Steve Scherf et al.
# Submitted via: ExactAudioCopyFreeDBPlugin 1.0
#
DISCID=79122818
DTITLE=Clara Smith - Complete Recorded Works Vol. 3 (1925)
DYEAR=1995
DGENRE=Blues
TTITLE0=Nobody Knows the Way I Feel Dis Mornin'
TTITLE1=Broken Busted Blues
TTITLE2=If You Only Knowed
TTITLE3=You Better Keep the Home Fires Burning (Cause Your Mamma's Get
TTITLE3=ting Cold)
TTITLE4=My Good-for-Nuthin' Man
TTITLE5=When I Steps Out
TTITLE6=The L and N Blues
TTITLE7=Shipwrecked Blues
TTITLE8=Court House Blues
TTITLE9=Court House Blues
TTITLE10=My John Blues
TTITLE11=Different Way Blues
TTITLE12=Down Home Bound Blues
TTITLE13=My Two Timing Papa
TTITLE14=Kitchen Mechanic Blues
TTITLE15=My Man Blues
TTITLE16=I'm Tired of Bein' Good
TTITLE17=Onery Blues
TTITLE18=You Get Mad
TTITLE19=Alley Rat Blues
TTITLE20=When My Sugar Walks Down the Street
TTITLE21=Disappointed Blues
TTITLE22=The Market Street Blues
TTITLE23=It Takes the Lawd (To Tell What's on My Mind)
EXTD=
EXTT0=
EXTT1=
EXTT2=
EXTT3=
EXTT4=
EXTT5=
EXTT6=
EXTT7=
EXTT8=
EXTT9=
EXTT10=
EXTT11=
EXTT12=
EXTT13=
EXTT14=
EXTT15=
EXTT16=
EXTT17=
EXTT18=
EXTT19=
EXTT20=
EXTT21=
EXTT22=
EXTT23=
PLAYORDER=
